<svg width="32" height="32" viewBox="0 0 32 32" fill="none" xmlns="http://www.w3.org/2000/svg">
<path d="M0.1 7.11C0.301636 6.22649 0.797311 5.43763 1.50584 4.87262C2.21438 4.30761 3.09377 3.99994 4 4H28C28.9062 3.99994 29.7856 4.30761 30.4942 4.87262C31.2027 5.43763 31.6984 6.22649 31.9 7.11L16 16.828L0.1 7.11ZM0 9.394V23.602L11.606 16.486L0 9.394ZM13.522 17.66L0.382 25.714C0.706653 26.3986 1.21905 26.9769 1.85956 27.3816C2.50007 27.7863 3.24235 28.0007 4 28H28C28.7575 28.0002 29.4995 27.7852 30.1397 27.3802C30.7798 26.9751 31.2918 26.3966 31.616 25.712L18.476 17.658L16 19.172L13.522 17.66ZM20.394 16.488L32 23.602V9.394L20.394 16.486V16.488Z" fill="white"/>
</svg>
