<svg width="32" height="33" viewBox="0 0 32 33" fill="none" xmlns="http://www.w3.org/2000/svg">
<path d="M10.052 30.4898C22.128 30.4898 28.734 20.4838 28.734 11.8218C28.734 11.5418 28.734 11.2578 28.722 10.9778C30.0081 10.0468 31.1181 8.89409 32 7.57379C30.7986 8.10349 29.5255 8.4526 28.222 8.60979C29.5951 7.78906 30.6234 6.49773 31.116 4.97579C29.826 5.74004 28.414 6.27654 26.942 6.56179C25.9524 5.50784 24.6428 4.80962 23.2162 4.5753C21.7895 4.34098 20.3254 4.58363 19.0507 5.26566C17.7759 5.9477 16.7616 7.03105 16.1649 8.34791C15.5682 9.66477 15.4224 11.1417 15.75 12.5498C13.1395 12.4189 10.5856 11.7407 8.25409 10.5593C5.92254 9.37782 3.86537 7.71948 2.216 5.69179C1.37868 7.13796 1.12315 8.84859 1.50129 10.4763C1.87944 12.1041 2.86291 13.5268 4.252 14.4558C3.21108 14.4204 2.19304 14.1409 1.28 13.6398V13.7298C1.28179 15.2448 1.80661 16.7126 2.76575 17.8853C3.72488 19.058 5.0595 19.8635 6.544 20.1658C5.98053 20.321 5.39846 20.3984 4.814 20.3958C4.40197 20.397 3.99076 20.3589 3.586 20.2818C4.00557 21.5859 4.82255 22.7261 5.92249 23.5427C7.02244 24.3594 8.35027 24.8115 9.72 24.8358C7.39311 26.6634 4.5188 27.6546 1.56 27.6498C1.03864 27.652 0.517646 27.6219 0 27.5598C3.00303 29.4743 6.4906 30.4909 10.052 30.4898Z" fill="#1DA1F2"/>
</svg>
