<svg width="32" height="32" viewBox="0 0 32 32" fill="none" xmlns="http://www.w3.org/2000/svg">
<path d="M15.0293 6.46607C18.9969 2.91813 25.1094 3.23627 28.6818 7.17667L28.9691 7.49351C30.6033 9.25206 32.0608 11.7905 31.998 14.2939C31.9776 15.1801 31.7254 16.0852 31.2274 16.8871L31.1321 17.0382C31.0796 17.1205 31.0066 17.2335 30.9148 17.3732C30.7314 17.6518 30.4709 18.0386 30.146 18.498C29.5026 19.4079 28.5756 20.6454 27.4667 21.9058C26.3793 23.1418 24.992 24.5436 23.4117 25.6746C21.9253 26.7383 19.6666 28 16.948 28C14.2846 28 11.9995 26.781 10.4866 25.7731C8.85492 24.6858 7.36894 23.3289 6.17552 22.1153C4.96081 20.8799 3.92406 19.6641 3.19712 18.7676C2.83056 18.3155 2.53525 17.9353 2.32733 17.6622C2.22321 17.5255 2.14056 17.415 2.08135 17.3352L1.97607 17.1921C0.305743 14.8867 0.831148 11.6704 3.1548 10.0098C5.47661 8.35055 8.71329 8.87466 10.3849 11.1796L10.4234 11.2317C10.4584 11.2789 10.515 11.3547 10.5914 11.455C10.7445 11.656 10.9749 11.953 11.2673 12.3137C11.4426 12.5299 11.6375 12.7655 11.8487 13.0145C11.998 10.5899 13.068 8.21984 15.0293 6.46607Z" fill="white"/>
<path fill-rule="evenodd" clip-rule="evenodd" d="M25.4491 8.19126C22.9745 5.47318 18.7406 5.25373 15.9923 7.70109C13.244 10.1484 13.0221 14.3359 15.4967 17.054L16.9902 18.6945C17.1186 18.8354 17.2539 18.9663 17.3955 19.087C16.7542 19.4539 16.2702 19.5849 15.9457 19.5849C15.4941 19.5849 14.7196 19.3388 13.6319 18.6171C12.5958 17.9296 11.5168 16.9732 10.5117 15.9552C9.51574 14.9466 8.643 13.9296 8.01662 13.1603C7.70478 12.7772 7.45718 12.4595 7.28939 12.2401C7.20555 12.1305 7.14184 12.0456 7.10019 11.9897C7.07936 11.9618 7.06407 11.9411 7.05457 11.9281L7.04362 11.9133C6.32343 10.9243 4.92852 10.6989 3.92819 11.4107C2.92759 12.1229 2.70063 13.5031 3.42064 14.4927L3.44532 14.5263C3.45972 14.546 3.48008 14.5735 3.50612 14.6085C3.5582 14.6783 3.63312 14.7781 3.72889 14.9034C3.92032 15.1536 4.19586 15.507 4.53968 15.9293C5.22463 16.7706 6.19336 17.9011 7.31786 19.0399C8.43314 20.1694 9.75365 21.3604 11.1449 22.2835C12.4846 23.1723 14.1652 24 15.9457 24C17.7497 24 19.3873 23.1543 20.6684 22.2412C21.9901 21.2993 23.2048 20.089 24.211 18.95C25.2267 17.8004 26.0848 16.6607 26.6864 15.8136C26.9886 15.3882 27.2293 15.0321 27.3962 14.7793C27.4799 14.6529 27.5452 14.552 27.5906 14.481C27.6134 14.4454 27.6312 14.4175 27.6439 14.3973L27.6664 14.3614C27.8821 14.0157 27.9897 13.6341 27.9985 13.2552C28.0421 11.8329 27.1358 10.0019 25.7478 8.51935L25.4491 8.19126ZM22.1316 11.1455C21.3067 10.2395 19.8954 10.1663 18.9794 10.9821C18.0633 11.7979 17.9893 13.1937 18.8142 14.0998L20.8302 16.0667L20.8495 16.045C21.6818 15.1029 22.4058 14.152 22.9406 13.4061C23.2609 12.6932 22.9723 12.0689 22.4303 11.4736L22.1316 11.1455Z" fill="#9E353A"/>
<path d="M20.8495 16.045C21.6818 15.1029 22.4058 14.152 22.9406 13.4061C23.2609 12.6932 22.9723 12.0689 22.4303 11.4736L22.1316 11.1455C21.3067 10.2395 19.8954 10.1663 18.9794 10.9821C18.0633 11.7979 17.9893 13.1937 18.8142 14.0998L20.8302 16.0667M20.8495 16.045C20.843 16.0522 20.8367 16.0595 20.8302 16.0667M20.8495 16.045L20.8302 16.0667M25.4491 8.19126C22.9745 5.47318 18.7406 5.25373 15.9923 7.70109C13.244 10.1484 13.0221 14.3359 15.4967 17.054L16.9902 18.6945C17.1186 18.8354 17.2539 18.9663 17.3955 19.087C16.7542 19.4539 16.2702 19.5849 15.9457 19.5849C15.4941 19.5849 14.7196 19.3388 13.6319 18.6171C12.5958 17.9296 11.5168 16.9732 10.5117 15.9552C9.51574 14.9466 8.643 13.9296 8.01662 13.1603C7.70478 12.7772 7.45718 12.4595 7.28939 12.2401C7.20555 12.1305 7.14184 12.0456 7.10019 11.9897C7.07936 11.9618 7.06407 11.9411 7.05457 11.9281L7.04362 11.9133C6.32343 10.9243 4.92852 10.6989 3.92819 11.4107C2.92759 12.1229 2.70063 13.5031 3.42064 14.4927L3.44532 14.5263C3.45972 14.546 3.48008 14.5735 3.50612 14.6085C3.5582 14.6783 3.63312 14.7781 3.72889 14.9034C3.92032 15.1536 4.19586 15.507 4.53968 15.9293C5.22463 16.7706 6.19336 17.9011 7.31786 19.0399C8.43314 20.1694 9.75365 21.3604 11.1449 22.2835C12.4846 23.1723 14.1652 24 15.9457 24C17.7497 24 19.3873 23.1543 20.6684 22.2412C21.9901 21.2993 23.2048 20.089 24.211 18.95C25.2267 17.8004 26.0848 16.6607 26.6864 15.8136C26.9886 15.3882 27.2293 15.0321 27.3962 14.7793C27.4799 14.6529 27.5452 14.552 27.5906 14.481C27.6134 14.4454 27.6312 14.4175 27.6439 14.3973L27.6664 14.3614C27.8821 14.0157 27.9897 13.6341 27.9985 13.2552C28.0421 11.8329 27.1358 10.0019 25.7478 8.51935L25.4491 8.19126Z" stroke="white" stroke-linecap="round"/>
</svg>
