<svg width="32" height="33" viewBox="0 0 32 33" fill="none" xmlns="http://www.w3.org/2000/svg">
<path d="M15.0188 8.02383C18.4405 4.94293 23.7119 5.21919 26.7928 8.64089L27.0405 8.91602C28.4499 10.4431 29.7068 12.6474 29.6527 14.8212C29.6351 15.5908 29.4176 16.3767 28.9881 17.0731L28.9059 17.2043C28.8606 17.2757 28.7977 17.3739 28.7185 17.4952C28.5603 17.7371 28.3357 18.073 28.0555 18.4719C27.5006 19.262 26.7012 20.3366 25.7449 21.4311C24.8071 22.5044 23.6107 23.7217 22.2478 24.7038C20.9659 25.6275 19.018 26.7231 16.6735 26.7231C14.3766 26.7231 12.4059 25.6646 11.1012 24.7893C9.69402 23.8452 8.41251 22.6669 7.3833 21.613C6.33573 20.5403 5.44163 19.4845 4.81472 18.706C4.4986 18.3134 4.24392 17.9833 4.06461 17.7461C3.97482 17.6274 3.90354 17.5315 3.85248 17.4622L3.76168 17.3379C2.32119 15.336 2.7743 12.5431 4.77822 11.1011C6.78056 9.66025 9.57188 10.1154 11.0135 12.1169L11.0467 12.1621C11.0769 12.2031 11.1257 12.2689 11.1916 12.356C11.3236 12.5306 11.5223 12.7885 11.7745 13.1017C11.9256 13.2894 12.0937 13.494 12.2759 13.7102C12.4046 11.6048 13.3274 9.54674 15.0188 8.02383Z" fill="url(#paint0_linear_125_171)"/>
<path fill-rule="evenodd" clip-rule="evenodd" d="M24.2901 9.71868C22.1454 7.33673 18.4758 7.14442 16.0939 9.28913C13.7119 11.4338 13.5196 15.1034 15.6643 17.4854L16.9588 18.923C17.07 19.0465 17.1873 19.1612 17.31 19.267C16.7542 19.5885 16.3347 19.7033 16.0535 19.7033C15.6621 19.7033 14.9908 19.4876 14.0481 18.8552C13.1501 18.2527 12.2149 17.4146 11.3438 16.5225C10.4806 15.6386 9.72419 14.7474 9.18131 14.0732C8.91103 13.7375 8.69644 13.4591 8.55101 13.2668C8.47835 13.1708 8.42313 13.0964 8.38703 13.0474C8.36898 13.0229 8.35573 13.0048 8.34749 12.9934L8.338 12.9804C7.71381 12.1137 6.50483 11.9162 5.63784 12.54C4.77062 13.1641 4.57391 14.3736 5.19795 15.2408L5.21934 15.2703C5.23182 15.2875 5.24946 15.3116 5.27203 15.3423C5.31717 15.4035 5.3821 15.4909 5.46511 15.6007C5.63102 15.82 5.86983 16.1297 6.16782 16.4998C6.76147 17.237 7.60108 18.2277 8.57569 19.2257C9.54231 20.2155 10.6868 21.2592 11.8926 22.0682C13.0537 22.8471 14.5103 23.5724 16.0535 23.5724C17.617 23.5724 19.0363 22.8313 20.1467 22.0311C21.2922 21.2057 22.345 20.1451 23.2171 19.1469C24.0974 18.1395 24.8411 17.1407 25.3625 16.3984C25.6244 16.0256 25.833 15.7135 25.9777 15.492C26.0502 15.3812 26.1068 15.2928 26.1462 15.2306C26.1659 15.1994 26.1814 15.1749 26.1924 15.1572L26.2119 15.1258C26.3988 14.8228 26.4921 14.4884 26.4997 14.1564C26.5375 12.91 25.752 11.3054 24.549 10.0062L24.2901 9.71868ZM21.4148 12.3076C20.6999 11.5136 19.4767 11.4495 18.6828 12.1644C17.8888 12.8793 17.8247 14.1025 18.5396 14.8965L20.2869 16.6202L20.3036 16.6012C21.025 15.7756 21.6525 14.9423 22.116 14.2886C22.3936 13.6639 22.1435 13.1168 21.6737 12.5951L21.4148 12.3076Z" fill="#A6F00F"/>
<path d="M20.3036 16.6012C21.025 15.7756 21.6525 14.9423 22.116 14.2886C22.3936 13.6639 22.1435 13.1168 21.6737 12.5951L21.4148 12.3076C20.6999 11.5136 19.4767 11.4495 18.6828 12.1644C17.8888 12.8793 17.8247 14.1025 18.5396 14.8965L20.2869 16.6202M20.3036 16.6012C20.298 16.6075 20.2925 16.6139 20.2869 16.6202M20.3036 16.6012L20.2869 16.6202M24.2901 9.71868C22.1454 7.33673 18.4758 7.14442 16.0939 9.28913C13.7119 11.4338 13.5196 15.1034 15.6643 17.4854L16.9588 18.923C17.07 19.0465 17.1873 19.1612 17.31 19.267C16.7542 19.5885 16.3347 19.7033 16.0535 19.7033C15.6621 19.7033 14.9908 19.4876 14.0481 18.8552C13.1501 18.2527 12.2149 17.4146 11.3438 16.5225C10.4806 15.6386 9.72419 14.7474 9.18131 14.0732C8.91103 13.7375 8.69644 13.4591 8.55101 13.2668C8.47835 13.1708 8.42313 13.0964 8.38703 13.0474C8.36898 13.0229 8.35573 13.0048 8.34749 12.9934L8.338 12.9804C7.71381 12.1137 6.50483 11.9162 5.63784 12.54C4.77062 13.1641 4.57391 14.3736 5.19795 15.2408L5.21934 15.2703C5.23182 15.2875 5.24946 15.3116 5.27203 15.3423C5.31717 15.4035 5.3821 15.4909 5.46511 15.6007C5.63102 15.82 5.86983 16.1297 6.16782 16.4998C6.76147 17.237 7.60108 18.2277 8.57569 19.2257C9.54231 20.2155 10.6868 21.2592 11.8926 22.0682C13.0537 22.8471 14.5103 23.5724 16.0535 23.5724C17.617 23.5724 19.0363 22.8313 20.1467 22.0311C21.2922 21.2057 22.345 20.1451 23.2171 19.1469C24.0974 18.1395 24.8411 17.1407 25.3625 16.3984C25.6244 16.0256 25.833 15.7135 25.9777 15.492C26.0502 15.3812 26.1068 15.2928 26.1462 15.2306C26.1659 15.1994 26.1814 15.1749 26.1924 15.1572L26.2119 15.1258C26.3988 14.8228 26.4921 14.4884 26.4997 14.1564C26.5375 12.91 25.752 11.3054 24.549 10.0062L24.2901 9.71868Z" stroke="#0C090D" stroke-linecap="round"/>
<defs>
<linearGradient id="paint0_linear_125_171" x1="29.6544" y1="5.88238" x2="9.44372" y2="31.8086" gradientUnits="userSpaceOnUse">
<stop stop-color="#10121A"/>
<stop offset="1" stop-color="#0C090D"/>
</linearGradient>
</defs>
</svg>
